<?xml version="1.0" encoding="UTF-8"?>
<!-- Generator: visioncortex VTracer 0.6.4 -->
<svg version="1.1" xmlns="http://www.w3.org/2000/svg" width="1024" height="1024">
<path d="M0 0 C0.89928223 0.21462891 1.79856445 0.42925781 2.72509766 0.65039062 C40.21444449 9.82788762 77.02115541 27.22212732 110 47 C111.04752441 47.62237549 111.04752441 47.62237549 112.11621094 48.25732422 C141.47218584 65.78794978 168.48010614 86.39821075 193.51025391 109.62792969 C195.05215209 111.04803257 196.60794585 112.45140735 198.16796875 113.8515625 C203.11115346 118.29958949 207.89397297 122.75081238 212.171875 127.859375 C214.01885752 130.02208103 215.94573559 132.09624685 217.89233398 134.16918945 C254.7771082 173.60298881 278.5122399 224.97934947 278.375 279.375 C278.37478851 280.1559201 278.37457703 280.93684021 278.37435913 281.74142456 C278.33666968 295.78279825 277.06361233 309.26707864 274 323 C273.80744629 323.86882812 273.61489258 324.73765625 273.41650391 325.6328125 C267.5866197 351.11481263 256.66308387 375.38816893 242 397 C241.39937744 397.90153809 241.39937744 397.90153809 240.78662109 398.82128906 C235.01945484 407.43835987 228.55097506 415.04012209 221.39013672 422.52441406 C219.36671738 424.67220937 217.4394556 426.90146501 215.5 429.125 C208.00540898 437.47186401 199.49803946 444.74004195 190.76953125 451.7578125 C187.86880049 454.10621794 185.03067625 456.51985874 182.1875 458.9375 C176.26431961 463.88240028 170.07313492 468.34981795 163.75146484 472.76757812 C162.06980187 473.95088377 160.40184341 475.15079131 158.73828125 476.359375 C142.43029083 488.19295336 125.5193719 499.11200108 108.31445312 509.58935547 C106.30430665 510.81452702 104.29970401 512.04808218 102.296875 513.28515625 C46.2308478 547.68858449 -14.46837125 575.02754667 -76 598 C-76.6954895 598.26018921 -77.390979 598.52037842 -78.10754395 598.78845215 C-100.84385154 607.28425285 -123.75688478 615.01036422 -147 622 C-148.24217285 622.37495605 -149.4843457 622.74991211 -150.76416016 623.13623047 C-261.70702774 656.38447284 -261.70702774 656.38447284 -300.3828125 636.79296875 C-313.47102172 629.09532706 -318.79570058 614.33919981 -323.0625 600.5625 C-323.29598145 599.81943604 -323.52946289 599.07637207 -323.77001953 598.31079102 C-328.35737179 582.84162714 -330.63982038 566.84691767 -332.38305664 550.84594727 C-332.68714116 548.06578075 -333.00765796 545.28785899 -333.33007812 542.50976562 C-335.96779224 519.30177245 -336.16245318 496.18391064 -336.13037109 472.85546875 C-336.12470246 468.72455016 -336.1280536 464.59369634 -336.13379669 460.46278 C-336.16581061 433.56628184 -335.57459845 406.81025645 -333.25 380 C-333.11928604 378.47395645 -333.11928604 378.47395645 -332.9859314 376.91708374 C-326.30646397 299.39319208 -312.84911631 223.52299258 -287 150 C-286.44965088 148.4221875 -286.44965088 148.4221875 -285.88818359 146.8125 C-274.23636628 113.7261109 -257.29706048 84.29796926 -233 59 C-232.5138623 58.49194824 -232.02772461 57.98389648 -231.52685547 57.46044922 C-171.1181273 -5.30876328 -82.17258409 -19.87006648 0 0 Z M-77.59765625 164.96484375 C-92.2060787 182.84698788 -101.82992033 204.77569131 -103 228 C-103.05285156 228.93714844 -103.10570312 229.87429688 -103.16015625 230.83984375 C-103.90488302 256.51672768 -95.16920402 281.14954113 -79 301 C-78.58830566 301.50740723 -78.17661133 302.01481445 -77.75244141 302.53759766 C-60.72814936 323.15848287 -35.4502552 336.95005095 -8.76171875 339.59375 C18.47076585 341.65219368 46.73188479 335.86470265 68.0390625 317.7578125 C68.68617188 317.17773438 69.33328125 316.59765625 70 316 C70.79148437 315.33742188 71.58296875 314.67484375 72.3984375 313.9921875 C83.44197326 304.5117368 91.34969797 293.79363036 98 281 C98.70769531 279.68128906 98.70769531 279.68128906 99.4296875 278.3359375 C105.18233021 266.79492138 108.71220978 252.88889068 109 240 C109.05800781 238.74123047 109.05800781 238.74123047 109.1171875 237.45703125 C109.79491798 211.96683473 101.64651784 186.42093749 85 167 C84.15695312 165.99582031 83.31390625 164.99164063 82.4453125 163.95703125 C64.35012059 142.96328842 38.60685766 130.16760496 11 128 C-22.77309276 125.93752105 -55.20825586 139.41062586 -77.59765625 164.96484375 Z " fill="#fff" transform="translate(541,212)"/>
</svg>
